<?xml version="1.0" encoding="UTF-8"?>
<svg height="600" width="800" xmlns="http://www.w3.org/2000/svg" xmlns:xlink="http://www.w3.org/1999/xlink">
    <g id="Notes" font-family="'LucidaGrande', 'Lucida Grande', sans-serif" font-size="13">
        <rect fill="white" height="600.0" width="800.0" x="0.0" y="0.0" />
        <g font-size="13">
            <text x="18.0" y="176.0">Small</text>
            <text x="18.0" y="376.0">Medium</text>
            <text x="18.0" y="576.0">Large</text>
        </g>
        <g font-size="9">
            <text x="250.0" y="30.0">Ultralight</text>
            <text x="450.0" y="30.0">Regular</text>
            <text x="650.0" y="30.0">Black</text>
            <text id="template-version" fill="#505050" text-anchor="end" x="785.0" y="575.0">Template v.3.0</text>
        </g>
    </g>
    <g id="Guides" stroke="rgb(39, 170, 225)" stroke-width="0.5">
        <path id="Capline-S" d="M18,76 l800,0" />
        <path id="H-reference" d="M85,145.755 L87.685,145.755 L113.369,79.287 L114.052,79.287 L114.052,76 L112.148,76 L85,145.755 Z M95.693,121.536 L130.996,121.536 L130.263,119.313 L96.474,119.313 L95.693,121.536 Z M139.15,145.755 L141.787,145.755 L114.638,76 L113.466,76 L113.466,79.287 L139.15,145.755 Z" stroke="none" />
        <path id="Baseline-S" d="M18,146 l800,0" />
        <path id="left-margin-Ultralight-S" d="M211,56 l0,110" />
        <path id="right-margin-Ultralight-S" d="M319,56 l0,110" />
        <path id="left-margin-Regular-S" d="M411,56 l0,110" />
        <path id="right-margin-Regular-S" d="M519,56 l0,110" />
        <path id="left-margin-Black-S" d="M611,56 l0,110" />
        <path id="right-margin-Black-S" d="M719,56 l0,110" />
        <path id="Capline-M" d="M18,276 l800,0" />
        <path id="Baseline-M" d="M18,346 l800,0" />
        <path id="Capline-L" d="M18,476 l800,0" />
        <path id="Baseline-L" d="M18,546 l800,0" />
    </g>
    <g id="Symbols">
        <g id="Ultralight-S">
            <path d="M259.418,95.321 C251.639,98.097 237.805,105.442 233.863,108.92 C240.247,105.4 249.028,101.012 257.977,98.023 C302.635,83.104 311.008,98.005 272.832,114.456 C257.513,121.055 245.82,122.27 253.155,113.127 C253.155,113.127 249.909,114.142 243.671,118.315 C231.195,126.66 250.152,130.873 278.033,118.7 C332.146,95.075 308.521,76.412 259.418,95.321 Z M265.047,101.072 C260.186,101.072 256.246,105.011 256.246,109.872 C256.247,111.93 256.958,113.818 258.142,115.317 C262.82,114.889 269.069,112.57 273.826,110.275 C273.833,110.14 273.846,110.007 273.846,109.872 C273.846,105.011 269.906,101.072 265.047,101.072 Z M272.556,123.993 C229.647,138.327 219.485,125.057 252.62,109.404 C252.733,106.37 253.933,103.614 255.848,101.51 C254.482,102.044 253.091,102.618 251.676,103.235 C197.562,126.86 222.013,145.604 271.117,126.695 C281.175,123.105 290.633,118.757 296.658,113.714 C290.273,117.234 281.505,121.005 272.556,123.993 Z M267.585,97.691 C286.036,92.979 295.942,96.998 286.038,103.621 C279.8,107.793 276.554,108.808 276.554,108.808 C280.322,104.111 279.061,102.154 274.874,102.251 C273.092,99.956 270.53,98.304 267.585,97.691" />
        </g>
        <g id="Regular-S">
            <path d="M459.418,95.321 C451.639,98.097 437.805,105.442 433.863,108.92 C440.247,105.4 449.028,101.012 457.977,98.023 C502.635,83.104 511.008,98.005 472.832,114.456 C457.513,121.055 445.82,122.27 453.155,113.127 C453.155,113.127 449.909,114.142 443.671,118.315 C431.195,126.66 450.152,130.873 478.033,118.7 C532.146,95.075 508.521,76.412 459.418,95.321 Z M465.047,101.072 C460.186,101.072 456.246,105.011 456.246,109.872 C456.247,111.93 456.958,113.818 458.142,115.317 C462.82,114.889 469.069,112.57 473.826,110.275 C473.833,110.14 473.846,110.007 473.846,109.872 C473.846,105.011 469.906,101.072 465.047,101.072 Z M472.556,123.993 C429.647,138.327 419.485,125.057 452.62,109.404 C452.733,106.37 453.933,103.614 455.848,101.51 C454.482,102.044 453.091,102.618 451.676,103.235 C397.562,126.86 422.013,145.604 471.117,126.695 C481.175,123.105 490.633,118.757 496.658,113.714 C490.273,117.234 481.505,121.005 472.556,123.993 Z M467.585,97.691 C486.036,92.979 495.942,96.998 486.038,103.621 C479.8,107.793 476.554,108.808 476.554,108.808 C480.322,104.111 479.061,102.154 474.874,102.251 C473.092,99.956 470.53,98.304 467.585,97.691" />
        </g>
        <g id="Black-S">
            <path d="M659.418,95.321 C651.639,98.097 637.805,105.442 633.863,108.92 C640.247,105.4 649.028,101.012 657.977,98.023 C702.635,83.104 711.008,98.005 672.832,114.456 C657.513,121.055 645.82,122.27 653.155,113.127 C653.155,113.127 649.91,114.142 643.671,118.315 C631.195,126.66 650.152,130.873 678.033,118.7 C732.146,95.075 708.521,76.412 659.418,95.321 Z M665.047,101.072 C660.186,101.072 656.246,105.011 656.246,109.872 C656.247,111.93 656.958,113.818 658.142,115.317 C662.82,114.889 669.069,112.57 673.826,110.275 C673.833,110.14 673.846,110.007 673.846,109.872 C673.846,105.011 669.906,101.072 665.047,101.072 Z M672.556,123.993 C629.647,138.327 619.485,125.057 652.62,109.404 C652.733,106.37 653.933,103.614 655.848,101.51 C654.482,102.044 653.091,102.618 651.676,103.235 C597.562,126.86 622.013,145.604 671.117,126.695 C681.175,123.105 690.633,118.757 696.658,113.714 C690.273,117.234 681.505,121.005 672.556,123.993 Z M667.586,97.691 C686.036,92.979 695.942,96.998 686.038,103.621 C679.8,107.793 676.554,108.808 676.554,108.808 C680.322,104.111 679.061,102.154 674.874,102.251 C673.092,99.956 670.53,98.304 667.586,97.691" />
        </g>
    </g>
</svg>