<?xml version="1.0" encoding="UTF-8"?>
<svg height="600" width="800" xmlns="http://www.w3.org/2000/svg" xmlns:xlink="http://www.w3.org/1999/xlink">
    <g id="Notes" font-family="'LucidaGrande', 'Lucida Grande', sans-serif" font-size="13">
        <rect fill="white" height="600.0" width="800.0" x="0.0" y="0.0" />
        <g font-size="13">
            <text x="18.0" y="176.0">Small</text>
            <text x="18.0" y="376.0">Medium</text>
            <text x="18.0" y="576.0">Large</text>
        </g>
        <g font-size="9">
            <text x="250.0" y="30.0">Ultralight</text>
            <text x="450.0" y="30.0">Regular</text>
            <text x="650.0" y="30.0">Black</text>
            <text id="template-version" fill="#505050" text-anchor="end" x="785.0" y="575.0">Template v.3.0</text>
        </g>
    </g>
    <g id="Guides" stroke="rgb(39, 170, 225)" stroke-width="0.5">
        <path id="Capline-S" d="M18,76 l800,0" />
        <path id="H-reference" d="M85,145.755 L87.685,145.755 L113.369,79.287 L114.052,79.287 L114.052,76 L112.148,76 L85,145.755 Z M95.693,121.536 L130.996,121.536 L130.263,119.313 L96.474,119.313 L95.693,121.536 Z M139.15,145.755 L141.787,145.755 L114.638,76 L113.466,76 L113.466,79.287 L139.15,145.755 Z" stroke="none" />
        <path id="Baseline-S" d="M18,146 l800,0" />
        <path id="left-margin-Ultralight-S" d="M220.123,56 l0,110" />
        <path id="right-margin-Ultralight-S" d="M309.877,56 l0,110" />
        <path id="left-margin-Regular-S" d="M420.123,56 l0,110" />
        <path id="right-margin-Regular-S" d="M509.877,56 l0,110" />
        <path id="left-margin-Black-S" d="M620.123,56 l0,110" />
        <path id="right-margin-Black-S" d="M709.877,56 l0,110" />
        <path id="Capline-M" d="M18,276 l800,0" />
        <path id="Baseline-M" d="M18,346 l800,0" />
        <path id="Capline-L" d="M18,476 l800,0" />
        <path id="Baseline-L" d="M18,546 l800,0" />
    </g>
    <g id="Symbols">
        <g id="Ultralight-S">
            <path d="M265,94.298 C261.943,94.298 259.153,95.056 256.629,96.57 C254.104,98.085 252.085,100.104 250.57,102.629 C249.055,105.153 248.298,107.943 248.298,111 C248.298,114.057 249.055,116.847 250.57,119.371 C252.085,121.896 254.104,123.915 256.629,125.43 C259.153,126.945 261.943,127.702 265,127.702 C268.029,127.702 270.806,126.945 273.33,125.43 C275.855,123.915 277.874,121.896 279.389,119.371 C280.903,116.847 281.661,114.057 281.661,111 C281.661,107.943 280.903,105.153 279.389,102.629 C277.874,100.104 275.855,98.085 273.33,96.57 C270.806,95.056 268.029,94.298 265,94.298 Z M268.193,79.193 C268.193,78.347 267.879,77.603 267.251,76.962 C266.624,76.321 265.873,76 265,76 C264.127,76 263.376,76.321 262.749,76.962 C262.121,77.603 261.807,78.347 261.807,79.193 L261.807,85.784 C261.807,86.63 262.121,87.373 262.749,88.015 C263.376,88.656 264.127,88.977 265,88.977 C265.873,88.977 266.624,88.656 267.251,88.015 C267.879,87.373 268.193,86.63 268.193,85.784 L268.193,79.193 Z M280.515,90.982 C279.914,91.583 279.614,92.327 279.614,93.213 C279.614,94.1 279.914,94.858 280.515,95.485 C281.142,96.086 281.9,96.393 282.786,96.406 C283.673,96.42 284.431,96.113 285.058,95.485 L289.725,90.819 C290.325,90.191 290.626,89.427 290.626,88.526 C290.626,87.626 290.325,86.875 289.725,86.275 C289.097,85.675 288.34,85.374 287.453,85.374 C286.566,85.374 285.823,85.675 285.222,86.275 L280.515,90.982 Z M296.684,114.193 C297.53,114.193 298.274,113.879 298.915,113.251 C299.557,112.624 299.877,111.873 299.877,111 C299.877,110.127 299.557,109.376 298.915,108.749 C298.274,108.121 297.53,107.807 296.684,107.807 L290.135,107.807 C289.261,107.807 288.511,108.121 287.883,108.749 C287.255,109.376 286.941,110.127 286.941,111 C286.941,111.873 287.255,112.624 287.883,113.251 C288.511,113.879 289.261,114.193 290.135,114.193 L296.684,114.193 Z M285.018,126.556 C284.417,125.955 283.673,125.655 282.786,125.655 C281.9,125.655 281.142,125.955 280.515,126.556 C279.914,127.183 279.614,127.94 279.614,128.827 C279.614,129.714 279.914,130.458 280.515,131.058 L285.222,135.766 C285.823,136.367 286.566,136.66 287.453,136.646 C288.34,136.633 289.097,136.326 289.725,135.725 C290.325,135.125 290.626,134.381 290.626,133.494 C290.626,132.607 290.325,131.85 289.725,131.222 L285.018,126.556 Z M268.193,136.216 C268.193,135.37 267.879,134.627 267.251,133.985 C266.624,133.344 265.873,133.023 265,133.023 C264.127,133.023 263.376,133.344 262.749,133.985 C262.121,134.627 261.807,135.37 261.807,136.216 L261.807,142.807 C261.807,143.653 262.121,144.397 262.749,145.038 C263.376,145.679 264.127,146 265,146 C265.873,146 266.624,145.679 267.251,145.038 C267.879,144.397 268.193,143.653 268.193,142.807 L268.193,136.216 Z M240.275,131.181 C239.647,131.809 239.333,132.566 239.333,133.453 C239.333,134.34 239.634,135.084 240.234,135.684 C240.834,136.285 241.585,136.592 242.485,136.605 C243.386,136.619 244.137,136.326 244.737,135.725 L249.404,131.058 C250.031,130.458 250.345,129.714 250.345,128.827 C250.345,127.94 250.045,127.183 249.444,126.556 C248.844,125.955 248.094,125.655 247.193,125.655 C246.292,125.655 245.542,125.955 244.941,126.556 L240.275,131.181 Z M233.316,107.807 C232.443,107.807 231.692,108.121 231.064,108.749 C230.437,109.376 230.123,110.127 230.123,111 C230.123,111.873 230.437,112.624 231.064,113.251 C231.692,113.879 232.443,114.193 233.316,114.193 L239.824,114.193 C240.698,114.193 241.448,113.879 242.076,113.251 C242.704,112.624 243.018,111.873 243.018,111 C243.018,110.127 242.704,109.376 242.076,108.749 C241.448,108.121 240.698,107.807 239.824,107.807 L233.316,107.807 Z M244.941,95.485 C245.542,96.086 246.286,96.386 247.173,96.386 C248.06,96.386 248.803,96.086 249.404,95.485 C250.031,94.885 250.345,94.135 250.345,93.234 C250.345,92.333 250.045,91.583 249.444,90.982 L244.778,86.275 C244.205,85.675 243.468,85.374 242.567,85.374 C241.667,85.374 240.916,85.675 240.316,86.275 C239.688,86.875 239.374,87.626 239.374,88.526 C239.374,89.427 239.674,90.177 240.275,90.778 L244.941,95.485 Z" />
        </g>
        <g id="Regular-S">
            <path d="M465,94.298 C461.943,94.298 459.153,95.056 456.629,96.57 C454.104,98.085 452.085,100.104 450.57,102.629 C449.055,105.153 448.298,107.943 448.298,111 C448.298,114.057 449.055,116.847 450.57,119.371 C452.085,121.896 454.104,123.915 456.629,125.43 C459.153,126.945 461.943,127.702 465,127.702 C468.029,127.702 470.806,126.945 473.33,125.43 C475.855,123.915 477.874,121.896 479.389,119.371 C480.903,116.847 481.661,114.057 481.661,111 C481.661,107.943 480.903,105.153 479.389,102.629 C477.874,100.104 475.855,98.085 473.33,96.57 C470.806,95.056 468.029,94.298 465,94.298 Z M468.193,79.193 C468.193,78.347 467.879,77.603 467.251,76.962 C466.624,76.321 465.873,76 465,76 C464.127,76 463.376,76.321 462.749,76.962 C462.121,77.603 461.807,78.347 461.807,79.193 L461.807,85.784 C461.807,86.63 462.121,87.373 462.749,88.015 C463.376,88.656 464.127,88.977 465,88.977 C465.873,88.977 466.624,88.656 467.251,88.015 C467.879,87.373 468.193,86.63 468.193,85.784 L468.193,79.193 Z M480.515,90.982 C479.914,91.583 479.614,92.327 479.614,93.213 C479.614,94.1 479.914,94.858 480.515,95.485 C481.142,96.086 481.9,96.393 482.786,96.406 C483.673,96.42 484.431,96.113 485.058,95.485 L489.725,90.819 C490.325,90.191 490.626,89.427 490.626,88.526 C490.626,87.626 490.325,86.875 489.725,86.275 C489.097,85.675 488.34,85.374 487.453,85.374 C486.566,85.374 485.823,85.675 485.222,86.275 L480.515,90.982 Z M496.684,114.193 C497.53,114.193 498.274,113.879 498.915,113.251 C499.557,112.624 499.877,111.873 499.877,111 C499.877,110.127 499.557,109.376 498.915,108.749 C498.274,108.121 497.53,107.807 496.684,107.807 L490.135,107.807 C489.261,107.807 488.511,108.121 487.883,108.749 C487.255,109.376 486.941,110.127 486.941,111 C486.941,111.873 487.255,112.624 487.883,113.251 C488.511,113.879 489.261,114.193 490.135,114.193 L496.684,114.193 Z M485.018,126.556 C484.417,125.955 483.673,125.655 482.786,125.655 C481.9,125.655 481.142,125.955 480.515,126.556 C479.914,127.183 479.614,127.94 479.614,128.827 C479.614,129.714 479.914,130.458 480.515,131.058 L485.222,135.766 C485.823,136.367 486.566,136.66 487.453,136.646 C488.34,136.633 489.097,136.326 489.725,135.725 C490.325,135.125 490.626,134.381 490.626,133.494 C490.626,132.607 490.325,131.85 489.725,131.222 L485.018,126.556 Z M468.193,136.216 C468.193,135.37 467.879,134.627 467.251,133.985 C466.624,133.344 465.873,133.023 465,133.023 C464.127,133.023 463.376,133.344 462.749,133.985 C462.121,134.627 461.807,135.37 461.807,136.216 L461.807,142.807 C461.807,143.653 462.121,144.397 462.749,145.038 C463.376,145.679 464.127,146 465,146 C465.873,146 466.624,145.679 467.251,145.038 C467.879,144.397 468.193,143.653 468.193,142.807 L468.193,136.216 Z M440.275,131.181 C439.647,131.809 439.333,132.566 439.333,133.453 C439.333,134.34 439.634,135.084 440.234,135.684 C440.834,136.285 441.585,136.592 442.485,136.605 C443.386,136.619 444.137,136.326 444.737,135.725 L449.404,131.058 C450.031,130.458 450.345,129.714 450.345,128.827 C450.345,127.94 450.045,127.183 449.444,126.556 C448.844,125.955 448.094,125.655 447.193,125.655 C446.292,125.655 445.542,125.955 444.941,126.556 L440.275,131.181 Z M433.316,107.807 C432.443,107.807 431.692,108.121 431.064,108.749 C430.437,109.376 430.123,110.127 430.123,111 C430.123,111.873 430.437,112.624 431.064,113.251 C431.692,113.879 432.443,114.193 433.316,114.193 L439.824,114.193 C440.698,114.193 441.448,113.879 442.076,113.251 C442.704,112.624 443.018,111.873 443.018,111 C443.018,110.127 442.704,109.376 442.076,108.749 C441.448,108.121 440.698,107.807 439.824,107.807 L433.316,107.807 Z M444.941,95.485 C445.542,96.086 446.286,96.386 447.173,96.386 C448.06,96.386 448.803,96.086 449.404,95.485 C450.031,94.885 450.345,94.135 450.345,93.234 C450.345,92.333 450.045,91.583 449.444,90.982 L444.778,86.275 C444.205,85.675 443.468,85.374 442.567,85.374 C441.667,85.374 440.916,85.675 440.316,86.275 C439.688,86.875 439.374,87.626 439.374,88.526 C439.374,89.427 439.674,90.177 440.275,90.778 L444.941,95.485 Z" />
        </g>
        <g id="Black-S">
            <path d="M665,94.298 C661.943,94.298 659.153,95.056 656.629,96.57 C654.104,98.085 652.085,100.104 650.57,102.629 C649.055,105.153 648.298,107.943 648.298,111 C648.298,114.057 649.055,116.847 650.57,119.371 C652.085,121.896 654.104,123.915 656.629,125.43 C659.153,126.945 661.943,127.702 665,127.702 C668.029,127.702 670.806,126.945 673.33,125.43 C675.855,123.915 677.874,121.896 679.389,119.371 C680.903,116.847 681.661,114.057 681.661,111 C681.661,107.943 680.903,105.153 679.389,102.629 C677.874,100.104 675.855,98.085 673.33,96.57 C670.806,95.056 668.029,94.298 665,94.298 Z M668.193,79.193 C668.193,78.347 667.879,77.603 667.251,76.962 C666.624,76.321 665.873,76 665,76 C664.127,76 663.376,76.321 662.749,76.962 C662.121,77.603 661.807,78.347 661.807,79.193 L661.807,85.784 C661.807,86.63 662.121,87.373 662.749,88.015 C663.376,88.656 664.127,88.977 665,88.977 C665.873,88.977 666.624,88.656 667.251,88.015 C667.879,87.373 668.193,86.63 668.193,85.784 L668.193,79.193 Z M680.515,90.982 C679.914,91.583 679.614,92.327 679.614,93.213 C679.614,94.1 679.914,94.858 680.515,95.485 C681.142,96.086 681.9,96.393 682.786,96.406 C683.673,96.42 684.431,96.113 685.058,95.485 L689.725,90.819 C690.325,90.191 690.626,89.427 690.626,88.526 C690.626,87.626 690.325,86.875 689.725,86.275 C689.097,85.675 688.34,85.374 687.453,85.374 C686.566,85.374 685.823,85.675 685.222,86.275 L680.515,90.982 Z M696.684,114.193 C697.53,114.193 698.274,113.879 698.915,113.251 C699.557,112.624 699.877,111.873 699.877,111 C699.877,110.127 699.557,109.376 698.915,108.749 C698.274,108.121 697.53,107.807 696.684,107.807 L690.135,107.807 C689.261,107.807 688.511,108.121 687.883,108.749 C687.255,109.376 686.941,110.127 686.941,111 C686.941,111.873 687.255,112.624 687.883,113.251 C688.511,113.879 689.261,114.193 690.135,114.193 L696.684,114.193 Z M685.018,126.556 C684.417,125.955 683.673,125.655 682.786,125.655 C681.9,125.655 681.142,125.955 680.515,126.556 C679.914,127.183 679.614,127.94 679.614,128.827 C679.614,129.714 679.914,130.458 680.515,131.058 L685.222,135.766 C685.823,136.367 686.566,136.66 687.453,136.646 C688.34,136.633 689.097,136.326 689.725,135.725 C690.325,135.125 690.626,134.381 690.626,133.494 C690.626,132.607 690.325,131.85 689.725,131.222 L685.018,126.556 Z M668.193,136.216 C668.193,135.37 667.879,134.627 667.251,133.985 C666.624,133.344 665.873,133.023 665,133.023 C664.127,133.023 663.376,133.344 662.749,133.985 C662.121,134.627 661.807,135.37 661.807,136.216 L661.807,142.807 C661.807,143.653 662.121,144.397 662.749,145.038 C663.376,145.679 664.127,146 665,146 C665.873,146 666.624,145.679 667.251,145.038 C667.879,144.397 668.193,143.653 668.193,142.807 L668.193,136.216 Z M640.275,131.181 C639.647,131.809 639.333,132.566 639.333,133.453 C639.333,134.34 639.634,135.084 640.234,135.684 C640.834,136.285 641.585,136.592 642.485,136.605 C643.386,136.619 644.136,136.326 644.737,135.725 L649.404,131.058 C650.031,130.458 650.345,129.714 650.345,128.827 C650.345,127.94 650.045,127.183 649.444,126.556 C648.844,125.955 648.094,125.655 647.193,125.655 C646.292,125.655 645.542,125.955 644.941,126.556 L640.275,131.181 Z M633.316,107.807 C632.443,107.807 631.692,108.121 631.064,108.749 C630.437,109.376 630.123,110.127 630.123,111 C630.123,111.873 630.437,112.624 631.064,113.251 C631.692,113.879 632.443,114.193 633.316,114.193 L639.825,114.193 C640.698,114.193 641.448,113.879 642.076,113.251 C642.704,112.624 643.018,111.873 643.018,111 C643.018,110.127 642.704,109.376 642.076,108.749 C641.448,108.121 640.698,107.807 639.825,107.807 L633.316,107.807 Z M644.941,95.485 C645.542,96.086 646.286,96.386 647.173,96.386 C648.06,96.386 648.803,96.086 649.404,95.485 C650.031,94.885 650.345,94.135 650.345,93.234 C650.345,92.333 650.045,91.583 649.444,90.982 L644.778,86.275 C644.205,85.675 643.468,85.374 642.567,85.374 C641.667,85.374 640.916,85.675 640.316,86.275 C639.688,86.875 639.374,87.626 639.374,88.526 C639.374,89.427 639.674,90.177 640.275,90.778 L644.941,95.485 Z" />
        </g>
    </g>
</svg>